<svg xmlns="http://www.w3.org/2000/svg" width="36.931" height="30.13" viewBox="0 0 36.931 30.13">
  <g id="ic_folder" transform="translate(-0.133 1)">
    <path id="Rectangle_39" data-name="Rectangle 39" d="M0,2.6A2.617,2.617,0,0,1,2.637,0h8.615l2.813,4.153H25.492a2.617,2.617,0,0,1,2.637,2.6v3.8H0Z" transform="translate(4.534)" fill="none" stroke="#fff" stroke-linecap="round" stroke-linejoin="round" stroke-miterlimit="10" stroke-width="2"/>
    <path id="Rectangle" d="M.239,3.232A2.637,2.637,0,0,1,2.809,0H32.442a2.637,2.637,0,0,1,2.569,3.232L32.163,15.538a2.637,2.637,0,0,1-2.569,2.042H5.657a2.637,2.637,0,0,1-2.569-2.043Z" transform="translate(0.973 10.549)" fill="none" stroke="#fff" stroke-linecap="round" stroke-linejoin="round" stroke-miterlimit="10" stroke-width="2"/>
  </g>
</svg>
