<svg xmlns="http://www.w3.org/2000/svg" width="35.979" height="35.982" viewBox="0 0 35.979 35.982">
  <g id="link-1" transform="translate(1 1)">
    <path id="Combined_Shape" data-name="Combined Shape" d="M6.041,1.749a5.984,5.984,0,0,1,8.464.01l.727.727a5.987,5.987,0,0,1,.01,8.464l-4.294,4.294a5.984,5.984,0,0,1-8.464-.01l-.727-.727a5.987,5.987,0,0,1-.01-8.464Z" transform="translate(16.99 0)" fill="none" stroke="#fff" stroke-linecap="round" stroke-linejoin="round" stroke-miterlimit="10" stroke-width="2"/>
    <path id="Combined_Shape_Copy" data-name="Combined Shape Copy" d="M6.041,1.749a5.984,5.984,0,0,1,8.464.01l.727.727a5.987,5.987,0,0,1,.01,8.464l-4.294,4.294a5.984,5.984,0,0,1-8.464-.01l-.727-.727a5.987,5.987,0,0,1-.01-8.464Z" transform="translate(0 16.99)" fill="none" stroke="#fff" stroke-linecap="round" stroke-linejoin="round" stroke-miterlimit="10" stroke-width="2"/>
    <path id="Line" d="M0,11.893,11.893,0" transform="translate(11.043 11.043)" fill="none" stroke="#fff" stroke-linecap="round" stroke-linejoin="round" stroke-miterlimit="10" stroke-width="2"/>
  </g>
</svg>
