<svg xmlns="http://www.w3.org/2000/svg" width="193.001" height="51.321" viewBox="0 0 193.001 51.321">
  <g id="Logo" transform="translate(-117.974 -102.891)">
    <path id="Path_225" data-name="Path 225" d="M117.974,109.983c.207-.154.173-.395.2-.6a6.839,6.839,0,0,1,.524-1.966,7.126,7.126,0,0,1,3.941-3.872,8.777,8.777,0,0,1,5.41-.407,15.381,15.381,0,0,1,4.984,2.19,4.68,4.68,0,0,0,1.294.672,1.14,1.14,0,0,0,1.378-.483,6,6,0,0,0,.351-.683,2.251,2.251,0,0,1,.177-.339.84.84,0,0,1,.844-.351.773.773,0,0,1,.639.6,1.619,1.619,0,0,1,.056.456q.02,3.9.028,7.794a1.31,1.31,0,0,1-.139.624.586.586,0,0,1-1.062.036,3.7,3.7,0,0,1-.363-.965,14.449,14.449,0,0,0-1.742-4.179,7.4,7.4,0,0,0-3.57-3,8.732,8.732,0,0,0-4.66-.482,6.094,6.094,0,0,0-2.167.767,3.571,3.571,0,0,0-1.9,3.149,2.809,2.809,0,0,0,1.774,2.815c.776.335,1.587.59,2.391.858,1.158.385,2.327.735,3.483,1.125,1.058.357,2.114.726,3.155,1.13a12.462,12.462,0,0,1,3.363,1.856,7.76,7.76,0,0,1,2.727,3.928,8.615,8.615,0,0,1,.271,3.665,7.7,7.7,0,0,1-1.2,3.261,8.132,8.132,0,0,1-3.671,2.9,8.307,8.307,0,0,1-4.958.407,17.491,17.491,0,0,1-5.106-2.008,7.046,7.046,0,0,0-1.1-.461,2.48,2.48,0,0,0-2.879,1.24c-.136.247-.251.506-.367.763a1,1,0,0,1-.715.642.7.7,0,0,1-.88-.541,1.8,1.8,0,0,1-.04-.42q-.015-5.4-.027-10.8a.86.86,0,0,1,.32-.785.763.763,0,0,1,1.177.542c.118.514.206,1.034.337,1.544a11.121,11.121,0,0,0,5.3,7.179,9.6,9.6,0,0,0,1.774.738,10.05,10.05,0,0,0,3.6.584,5.292,5.292,0,0,0,2.511-.657,3.57,3.57,0,0,0,1.772-2.623,4.315,4.315,0,0,0-.36-2.669,3.665,3.665,0,0,0-1.935-1.748c-.765-.329-1.559-.591-2.347-.865-2.171-.754-4.363-1.454-6.457-2.414a14.089,14.089,0,0,1-3.343-2.048,7.194,7.194,0,0,1-2.13-2.933,7.884,7.884,0,0,1-.452-1.829c-.03-.242.034-.525-.208-.71Z" transform="translate(0 0)" fill="#cf3034"/>
    <path id="Path_226" data-name="Path 226" d="M847.111,413.984a.909.909,0,0,0-.056-.1.727.727,0,0,1,.111-1.129,1.4,1.4,0,0,1,.6-.3c.354-.075.582.164.569.526a1.034,1.034,0,0,1-.413.747c-.093.083-.183.171-.274.256Z" transform="translate(-611.658 -259.772)" fill="#8d929a"/>
    <path id="Path_227" data-name="Path 227" d="M259.378,164.115c.081-.1.162-.191.242-.287a6.978,6.978,0,0,1,3-2.231,6.194,6.194,0,0,1,4.844.072,4.693,4.693,0,0,1,2.266,2.381c.078.162.132.335.207.5.044.1.108.184.192.323.105-.145.175-.232.235-.325a7.106,7.106,0,0,1,3.659-2.943,6.929,6.929,0,0,1,4.211-.229,4.5,4.5,0,0,1,3,2.629,7.245,7.245,0,0,1,.625,2.845c.045,2.006.062,4.013.088,6.02.015,1.145.022,2.29.046,3.434a5.19,5.19,0,0,0,.1.879,1.423,1.423,0,0,0,1.1,1.16c.174.048.352.076.525.127a.807.807,0,0,1,.592.806.625.625,0,0,1-.74.677c-.423-.036-.846-.072-1.268-.119a17.806,17.806,0,0,0-4.234,0c-.573.073-1.154.1-1.732.121-.476.021-.7-.155-.749-.538a.846.846,0,0,1,.571-.937c.236-.06.48-.09.72-.136a1.514,1.514,0,0,0,1.283-1.267,3.777,3.777,0,0,0,.095-.725q-.012-3.7-.044-7.409c0-.527-.026-1.055-.066-1.581a5.107,5.107,0,0,0-.688-2.306,2.429,2.429,0,0,0-2.628-1.192,4.4,4.4,0,0,0-3.162,2.242,6.125,6.125,0,0,0-.924,3.258c.015,2.393,0,4.786.017,7.178a3.362,3.362,0,0,0,.149.942,1.263,1.263,0,0,0,1,.86c.187.045.379.072.569.1a.864.864,0,0,1,.469,1.281.583.583,0,0,1-.581.229c-.475-.034-.95-.07-1.422-.127a18.235,18.235,0,0,0-4.349.006c-.447.053-.9.1-1.345.119s-.641-.137-.709-.533a.778.778,0,0,1,.463-.949,4.2,4.2,0,0,1,.641-.13,1.431,1.431,0,0,0,1.343-1.551q.006-4.072,0-8.143a8.249,8.249,0,0,0-.513-2.986,2.554,2.554,0,0,0-1.564-1.652,3.707,3.707,0,0,0-1.249-.178,3.975,3.975,0,0,0-3.725,2.592,5.445,5.445,0,0,0-.449,2.215q.008,3.9.05,7.8a2.6,2.6,0,0,0,.132.833,1.648,1.648,0,0,0,1.274,1.063c.187.044.382.054.572.09a.75.75,0,0,1,.653.887.7.7,0,0,1-.854.634c-1-.065-2-.145-3-.187a38.456,38.456,0,0,0-4.317.169c-.038,0-.077.008-.115.012-.5.044-.742-.1-.816-.493a.774.774,0,0,1,.6-1c.361-.089.732-.145,1.084-.259a1.343,1.343,0,0,0,.967-1.1,4.417,4.417,0,0,0,.074-.65q.14-4.785-.056-9.569c-.019-.45-.026-.9-.074-1.348a2.8,2.8,0,0,0-.2-.779,1.388,1.388,0,0,0-.92-.821,6.168,6.168,0,0,0-.944-.173.7.7,0,0,1-.669-.748.708.708,0,0,1,.653-.8,26.937,26.937,0,0,0,4.188-.65,3.767,3.767,0,0,1,.8-.11.772.772,0,0,1,.881.909c-.027.448-.108.893-.16,1.34-.015.132-.013.267-.019.4Z" transform="translate(-113.251 -48.882)" fill="#cf3034"/>
    <path id="Path_228" data-name="Path 228" d="M918.691,114.792a2.374,2.374,0,0,0,.218-.2,6.5,6.5,0,0,1,7.65-1.68,4.66,4.66,0,0,1,2.4,2.842,9.9,9.9,0,0,1,.524,3.3q0,4.033.021,8.065a6.29,6.29,0,0,0,.127,1.184,1.481,1.481,0,0,0,1.228,1.183c.212.051.429.086.637.15a.77.77,0,0,1,.522.974.706.706,0,0,1-.854.532c-.908-.1-1.815-.2-2.725-.265a24.211,24.211,0,0,0-4.233.22c-.077.008-.153.024-.229.03-.426.036-.629-.128-.677-.546-.007-.064-.01-.128-.012-.193-.017-.553.1-.7.652-.813.176-.035.357-.052.533-.088a1.373,1.373,0,0,0,1.207-1.228,6.86,6.86,0,0,0,.106-1.074q.016-3.7.006-7.409a8.927,8.927,0,0,0-.259-2.256,4.369,4.369,0,0,0-.571-1.341A2.613,2.613,0,0,0,922.4,115a3.975,3.975,0,0,0-3.191,2.027,4.271,4.271,0,0,0-.643,2.308c.02,2.676.021,5.351.034,8.027a8.292,8.292,0,0,0,.053.924,1.353,1.353,0,0,0,1.044,1.2c.209.064.424.107.634.167a.523.523,0,0,1,.413.5,2.019,2.019,0,0,1,0,.422.612.612,0,0,1-.734.56c-.409-.045-.817-.1-1.226-.145a18.008,18.008,0,0,0-4.2,0c-.548.068-1.1.105-1.653.145a.535.535,0,0,1-.651-.539,1.919,1.919,0,0,1-.012-.346.582.582,0,0,1,.5-.64,4.754,4.754,0,0,1,.567-.109,1.53,1.53,0,0,0,1.415-1.44c.025-.282.04-.565.044-.847.1-6.058.139-12.117.015-18.175-.011-.514-.056-1.027-.079-1.541-.057-1.26-.708-1.681-1.813-1.863-.241-.04-.483-.07-.724-.109a.625.625,0,0,1-.537-.576,1.926,1.926,0,0,1-.023-.461.655.655,0,0,1,.529-.63,1.847,1.847,0,0,1,.3-.055c1.718-.165,3.405-.513,5.1-.836a1.574,1.574,0,0,1,.383-.028.56.56,0,0,1,.548.457,4.339,4.339,0,0,1,.072.8q.007,5.056,0,10.111c0,.149.012.3.019.446Z" transform="translate(-666.031 -0.041)" fill="#354791"/>
    <path id="Path_229" data-name="Path 229" d="M1171.888,170.795a10.967,10.967,0,0,1-.549,3.609,7.671,7.671,0,0,1-5.008,5.165,8.907,8.907,0,0,1-4.493.345,7.263,7.263,0,0,1-4.665-2.969,9.571,9.571,0,0,1-1.627-3.753,12.568,12.568,0,0,1-.125-4.525,8.793,8.793,0,0,1,2.715-5.44,7.679,7.679,0,0,1,3.8-1.83,9.727,9.727,0,0,1,2.458-.146,7.178,7.178,0,0,1,6.656,4.68A12.277,12.277,0,0,1,1171.888,170.795Zm-4.04-.388c-.025-.53-.034-1.329-.107-2.122a9.572,9.572,0,0,0-.67-2.92,3.489,3.489,0,0,0-2.711-2.32,3.453,3.453,0,0,0-3.591,1.416,5.92,5.92,0,0,0-.884,1.873,14.252,14.252,0,0,0-.535,3.653,20.6,20.6,0,0,0,.175,3.81,7.788,7.788,0,0,0,.866,2.7,3.347,3.347,0,0,0,2.079,1.666,4.586,4.586,0,0,0,1.648.075,3.3,3.3,0,0,0,2.65-1.633,6.894,6.894,0,0,0,.81-2.4A24.977,24.977,0,0,0,1167.848,170.407Z" transform="translate(-870.496 -48.956)" fill="#354791"/>
    <path id="Path_230" data-name="Path 230" d="M1057.472,170.28a12.361,12.361,0,0,1-.853,4.882,7.546,7.546,0,0,1-4.436,4.3,8.932,8.932,0,0,1-4.819.442,7.251,7.251,0,0,1-4.782-3.181,10.024,10.024,0,0,1-1.606-4.292,12.654,12.654,0,0,1,.042-3.957,8.7,8.7,0,0,1,2.744-5.3,7.577,7.577,0,0,1,3.748-1.775,9.921,9.921,0,0,1,3.642,0,6.974,6.974,0,0,1,4.949,3.466,9.577,9.577,0,0,1,1.219,3.787C1057.395,169.3,1057.442,169.951,1057.472,170.28Zm-4.078.363a20.186,20.186,0,0,0-.189-3.154,9.141,9.141,0,0,0-.708-2.433,3.58,3.58,0,0,0-4.788-1.756,3.669,3.669,0,0,0-1.734,1.745,10.021,10.021,0,0,0-1,4.05,20.845,20.845,0,0,0,.131,4.734,8.206,8.206,0,0,0,.724,2.427,3.422,3.422,0,0,0,2.2,1.907,4.559,4.559,0,0,0,1.725.069,3.275,3.275,0,0,0,2.577-1.619,7.184,7.184,0,0,0,.844-2.585A20.693,20.693,0,0,0,1053.394,170.643Z" transform="translate(-774.463 -48.956)" fill="#354791"/>
    <path id="Path_231" data-name="Path 231" d="M463.377,177.887c-.15.12-.261.2-.364.293a6.94,6.94,0,0,1-2.06,1.336,7.086,7.086,0,0,1-4.054.385,3.809,3.809,0,0,1-3.042-3.162,6.381,6.381,0,0,1,.139-3.088,4.5,4.5,0,0,1,1.584-2.315,7.815,7.815,0,0,1,3.995-1.692c1.082-.144,2.17-.247,3.256-.368.273-.03.334-.065.332-.319a21.551,21.551,0,0,0-.165-3.733,2.816,2.816,0,0,0-2.9-2.5,3.243,3.243,0,0,0-1.94.527,1.59,1.59,0,0,0-.738,1.622,2.136,2.136,0,0,0,.278.874,1.215,1.215,0,0,1,.031,1.182,1.9,1.9,0,0,1-2.744.812,1.654,1.654,0,0,1-.754-1.326,3.749,3.749,0,0,1,.94-2.961,6.211,6.211,0,0,1,3.027-1.9,8.816,8.816,0,0,1,3.323-.3,6.874,6.874,0,0,1,3.3,1.189,3.908,3.908,0,0,1,1.591,2.509,11.012,11.012,0,0,1,.192,2.418c0,2.315-.007,4.631.009,6.946,0,.692.08,1.384.124,2.076a.824.824,0,0,0,.026.152c.253.973.854,1.293,1.879.839a1.4,1.4,0,0,0,.194-.124c.144-.095.262-.3.466-.191a.934.934,0,0,1,.523.585.489.489,0,0,1-.082.358,4.809,4.809,0,0,1-2.2,1.807,3.117,3.117,0,0,1-3.936-1.5C463.545,178.193,463.476,178.073,463.377,177.887Zm-.218-4.449h.01q0-.886,0-1.772c0-.193,0-.385,0-.578s-.092-.255-.268-.234c-.064.008-.128.011-.191.025-.764.166-1.538.3-2.289.512a4.441,4.441,0,0,0-2.142,1.309,3.341,3.341,0,0,0-.633,3.557,1.63,1.63,0,0,0,1.111,1.093,3.65,3.65,0,0,0,.949.144,4.663,4.663,0,0,0,3.208-1.288.694.694,0,0,0,.248-.571C463.152,174.9,463.159,174.17,463.159,173.437Z" transform="translate(-281.762 -48.946)" fill="#cf3034"/>
    <path id="Path_232" data-name="Path 232" d="M733.277,177.763a16.154,16.154,0,0,0-.222-3.189,2.745,2.745,0,0,1-.043-.344.58.58,0,0,1,.541-.7.659.659,0,0,1,.826.5c.119.42.217.847.363,1.258a4.72,4.72,0,0,0,1.643,2.327,3.438,3.438,0,0,0,1.559.624c.331.048.664.083,1,.123a2.855,2.855,0,0,0,1.291-.17,2.323,2.323,0,0,0,1.538-1.787c.041-.175.063-.355.092-.532a2.276,2.276,0,0,0-.662-2.046,6.991,6.991,0,0,0-2.141-1.422c-.9-.417-1.811-.8-2.71-1.208-.408-.187-.8-.409-1.192-.63a4.175,4.175,0,0,1-2.1-3.041,5.351,5.351,0,0,1,.334-3.141,4.8,4.8,0,0,1,2.177-2.27,6.968,6.968,0,0,1,4.243-.848,5.549,5.549,0,0,1,2.544.938c.473.322.562.293.761-.255a.515.515,0,0,1,.495-.41c.314,0,.639.01.807.331a.566.566,0,0,1,.013.4,4.363,4.363,0,0,0-.242,1.554c.024,1,.044,2.005.076,3.007a.588.588,0,0,1-.538.709.611.611,0,0,1-.761-.426c-.132-.4-.2-.827-.343-1.223a7.924,7.924,0,0,0-.593-1.332,2.7,2.7,0,0,0-1.878-1.358,3.854,3.854,0,0,0-2.7.274,2.253,2.253,0,0,0-1.236,1.671,1.892,1.892,0,0,0,1.047,2.083c.763.369,1.541.708,2.321,1.04a18.969,18.969,0,0,1,3.471,1.83,5.136,5.136,0,0,1,2.244,3.249,5.048,5.048,0,0,1-1.325,4.98,5.715,5.715,0,0,1-2.224,1.272,9.764,9.764,0,0,1-4.767.215,8.585,8.585,0,0,1-1.847-.534c-.439-.182-.541-.126-.717.331a.7.7,0,0,1-1.1.257.719.719,0,0,1-.149-.453c-.006-.294.035-.59.057-.885C733.239,178.29,733.256,178.046,733.277,177.763Z" transform="translate(-516.095 -48.95)" fill="#354791"/>
    <path id="Path_233" data-name="Path 233" d="M1263.958,115.671q0,5.789,0,11.578a5.324,5.324,0,0,0,.068.8,1.527,1.527,0,0,0,1.09,1.235,8.839,8.839,0,0,0,.857.219,2.191,2.191,0,0,1,.442.128.612.612,0,0,1,.273.254,1.089,1.089,0,0,1,.019.9.571.571,0,0,1-.648.309c-.461-.041-.923-.078-1.383-.127a26.542,26.542,0,0,0-5.278-.012c-.487.045-.975.073-1.463.1a1.145,1.145,0,0,1-.345-.023.6.6,0,0,1-.265-.141.867.867,0,0,1,.262-1.279c.214-.078.456-.073.678-.132a7.4,7.4,0,0,0,1.133-.35,1.3,1.3,0,0,0,.731-1.027,4.577,4.577,0,0,0,.062-.768q0-9.61-.019-19.22a4.552,4.552,0,0,0-.166-1.373,1.623,1.623,0,0,0-1.136-1.11,9.235,9.235,0,0,0-.979-.2,1.153,1.153,0,0,0-.115-.012c-.6-.057-.883-.276-.818-1.043.034-.4.2-.563.613-.615.548-.071,1.1-.115,1.646-.2,1.18-.187,2.358-.395,3.537-.592a2.544,2.544,0,0,1,.42-.049.681.681,0,0,1,.74.671c.013.141.012.283.012.424q0,5.828,0,11.655Z" transform="translate(-955.823 -0.025)" fill="#354791"/>
    <path id="Path_234" data-name="Path 234" d="M825.759,169.967a7.775,7.775,0,0,0,1.24,4.616,5.585,5.585,0,0,0,2.387,2.125,5.783,5.783,0,0,0,3.475.346,7.013,7.013,0,0,0,2.541-1.071c.346-.228.511-.207.783.061a.737.737,0,0,1,.219.934,2.272,2.272,0,0,1-.261.334,7.663,7.663,0,0,1-4.108,2.435,8.519,8.519,0,0,1-4.312-.075,7.7,7.7,0,0,1-4.492-3.372,10.031,10.031,0,0,1-1.406-3.723,11.888,11.888,0,0,1-.129-3.266,9.479,9.479,0,0,1,1.968-5.106,8.077,8.077,0,0,1,3.546-2.5,9.157,9.157,0,0,1,5.2-.318,5.27,5.27,0,0,1,2.476,1.189,3.659,3.659,0,0,1,1.3,2.42,2.625,2.625,0,0,1-.432,1.835,1.926,1.926,0,0,1-2.358.547,1.8,1.8,0,0,1-.958-2.065,3.148,3.148,0,0,1,.289-.708.846.846,0,0,0-.325-1.279,3.842,3.842,0,0,0-2.561-.5,4.156,4.156,0,0,0-3.353,2.792,10.661,10.661,0,0,0-.673,3.194C825.785,169.2,825.778,169.582,825.759,169.967Z" transform="translate(-590.512 -48.892)" fill="#354791"/>
    <path id="Path_235" data-name="Path 235" d="M560.191,164.064c.079-.128.161-.254.236-.385a4.531,4.531,0,0,1,2-2.019,4.741,4.741,0,0,1,1.241-.394,4.9,4.9,0,0,1,2.216.089,2.471,2.471,0,0,1,1.745,1.789,2.922,2.922,0,0,1-.172,2.139,1.564,1.564,0,0,1-1.3.907,3.094,3.094,0,0,1-.615,0,1.383,1.383,0,0,1-1.35-1.291,3.511,3.511,0,0,1-.023-.385.8.8,0,0,0-1.011-.846,2.076,2.076,0,0,0-1.087.544,4.623,4.623,0,0,0-1.144,1.673,5.031,5.031,0,0,0-.394,2.027c.016,2.649.011,5.3.016,7.946,0,.231,0,.463.02.694a1.517,1.517,0,0,0,.834,1.3,5.686,5.686,0,0,0,1.647.515,5.441,5.441,0,0,1,.709.173.675.675,0,0,1,.5.735.692.692,0,0,1-.618.682,4.346,4.346,0,0,1-.807.025c-.436-.022-.873-.056-1.307-.11a25.924,25.924,0,0,0-5.2-.04c-.628.048-1.256.1-1.885.138-.424.029-.656-.119-.739-.458a.826.826,0,0,1,.405-.985,5.089,5.089,0,0,1,.6-.151,8.728,8.728,0,0,0,.993-.294,1.738,1.738,0,0,0,1.074-1.566,5.209,5.209,0,0,0,.014-.54c0-2.957,0-5.915-.021-8.872a10.844,10.844,0,0,0-.157-1.724,1.637,1.637,0,0,0-1.375-1.471c-.315-.059-.633-.1-.951-.137a.6.6,0,0,1-.608-.574.824.824,0,0,1,.771-1.016c1.516-.194,3.025-.445,4.538-.671.9-.134,1.217.153,1.176,1.063-.017.36-.043.719-.061,1.078-.006.125,0,.251,0,.376Z" transform="translate(-365.626 -48.918)" fill="#cf3034"/>
    <path id="Path_236" data-name="Path 236" d="M649.088,149.77q0-2.624,0-5.248c0-.154,0-.309,0-.463-.015-.405-.133-.531-.533-.547-.334-.013-.669,0-1-.015a.6.6,0,0,1-.67-.6,3.532,3.532,0,0,1-.018-.693.545.545,0,0,1,.507-.58c.388-.09.784-.146,1.165-.259a2.5,2.5,0,0,0,1.729-1.818,10.82,10.82,0,0,0,.354-1.734.936.936,0,0,1,.935-.936,2.06,2.06,0,0,1,.576,0,.67.67,0,0,1,.651.725c.01.218,0,.437,0,.656,0,.887,0,1.775,0,2.663,0,.4.039.438.444.44q1.582.009,3.164.013c.1,0,.206,0,.309,0a.561.561,0,0,1,.6.574,4.965,4.965,0,0,1-.007.885c-.048.473-.258.65-.741.65-1.067,0-2.135-.007-3.2-.011-.1,0-.206,0-.309,0a.235.235,0,0,0-.241.248c0,.09,0,.18,0,.27q0,4.766,0,9.531a7.058,7.058,0,0,0,.218,2.1,4.1,4.1,0,0,0,.24.649,1.43,1.43,0,0,0,1.353.85,4.637,4.637,0,0,0,2.315-.626c.057-.031.112-.064.168-.1.39-.219.521-.207.816.077a.6.6,0,0,1,.121.861,4.266,4.266,0,0,1-2.507,1.988,6.664,6.664,0,0,1-3.805-.015,3.309,3.309,0,0,1-2.294-2.259,6.781,6.781,0,0,1-.326-2.164q0-2.566,0-5.132Z" transform="translate(-443.831 -28.508)" fill="#cf3034"/>
    <path id="Path_237" data-name="Path 237" d="M1011.269,333.676c-.082.139-.217.1-.336.079a1.226,1.226,0,0,1-.93-.733,2.665,2.665,0,0,1-.1-1.775,3.925,3.925,0,0,1,.746-1.51,6.682,6.682,0,0,1,2.725-2.207,3.488,3.488,0,0,1,1.466-.281,1.549,1.549,0,0,1,1.525,1.409,4.069,4.069,0,0,1-.413,2.249,8.873,8.873,0,0,1-3.8,3.981,3.9,3.9,0,0,1-2.695.4,3.134,3.134,0,0,1-2.517-3.1,5.986,5.986,0,0,1,.913-3.184,9.852,9.852,0,0,1,4.928-4.144,10.806,10.806,0,0,1,4.411-.783,5.59,5.59,0,0,1,3.428,1.1,10.759,10.759,0,0,1,.913.88c.089.089.161.2.268.327.126-.091.242-.163.345-.25a8.23,8.23,0,0,1,2.567-1.538,5.69,5.69,0,0,1,2.082-.344,2.734,2.734,0,0,1,2.756,2.588c0,.038.005.077.009.115.032.4.032.4.443.486.139.028.275.067.413.1a1.539,1.539,0,0,0,1.021-.037c.059-.027.141,0,.31,0a1.717,1.717,0,0,1-.276.276,2.287,2.287,0,0,1-1.615.369c-.34-.069-.348-.037-.457.291a.84.84,0,0,1-.2.36.589.589,0,0,0-.2.437q-.044.654-.093,1.308c-.009.121-.029.241-.045.366-.2-.019-.21-.146-.225-.255-.034-.242-.049-.487-.087-.728-.042-.266-.116-.293-.365-.174-.731.348-1.46.7-2.2,1.032a2.059,2.059,0,0,1-.839.225c.084-.233.256-.269.4-.333a12.014,12.014,0,0,0,2.3-1.321c.411-.307.791-.655,1.177-.994.207-.182.169-.335-.09-.408-.185-.052-.373-.1-.562-.137a1.186,1.186,0,0,0-.791.072.542.542,0,0,1-.324.021,1.192,1.192,0,0,1,.861-.565,7.1,7.1,0,0,1,1.084-.15,1.032,1.032,0,0,0,.038-.229,2.45,2.45,0,0,0-2.368-2.432,5.168,5.168,0,0,0-3.281.928,14.7,14.7,0,0,0-1.3,1.022c-.281.236-.271.251-.115.583a7.084,7.084,0,0,1,.506,4.7,7,7,0,0,1-1.8,3.313,8.68,8.68,0,0,1-5.508,2.736,13.664,13.664,0,0,1-3.61-.174,3.6,3.6,0,0,0-1.146.013,14.187,14.187,0,0,1-4.57.084,1.667,1.667,0,0,1-.505-.175c-.245-.13-.269-.382-.025-.51a3.488,3.488,0,0,1,.933-.335,6.98,6.98,0,0,1,2.608.067c.7.125,1.388.267,2.08.412a1.954,1.954,0,0,0,1.02-.072,7.124,7.124,0,0,0,3.832-2.958q1.3-1.917,2.571-3.847a20.8,20.8,0,0,1,2.68-3.33c.279-.278.276-.283.048-.609a4.75,4.75,0,0,0-3.7-2.009,7.953,7.953,0,0,0-5.264,1.392,11.015,11.015,0,0,0-3.945,4.546,5.757,5.757,0,0,0-.6,2.606,2.171,2.171,0,0,0,1.688,2.084,3.538,3.538,0,0,0,2.711-.438,8.409,8.409,0,0,0,3.592-4.057,3.841,3.841,0,0,0,.284-1.7,1.292,1.292,0,0,0-1.628-1.28,2.957,2.957,0,0,0-1.2.506,7.629,7.629,0,0,0-2.618,3.173,3.159,3.159,0,0,0-.262,1.506.771.771,0,0,0,.672.815,1.906,1.906,0,0,1,.217.073C1011.244,333.607,1011.251,333.641,1011.269,333.676Zm10.415-6.486a3.9,3.9,0,0,0-.325.326,15.181,15.181,0,0,0-1.742,2.859,25.831,25.831,0,0,1-1.547,2.929,8.221,8.221,0,0,1-2.217,2.437,12.333,12.333,0,0,1-3.129,1.471,2.944,2.944,0,0,0-.283.127l.014.1a2.643,2.643,0,0,0,.395.088c.538.039,1.078.085,1.617.1a6.54,6.54,0,0,0,5.338-2.467,10.57,10.57,0,0,0,1.808-2.99,6.709,6.709,0,0,0,.406-4.153A1.932,1.932,0,0,0,1021.685,327.19Zm-11.57,10.305v-.064a2.586,2.586,0,0,0-.323-.07c-.9-.081-1.79-.169-2.686-.229a8.288,8.288,0,0,0-1.077.035,1.376,1.376,0,0,0-.317.1.582.582,0,0,0,.582.255c1.181.02,2.362.024,3.542.028A1.309,1.309,0,0,0,1010.114,337.495Z" transform="translate(-744.673 -185.617)" fill="#8d929a"/>
    <path id="Path_238" data-name="Path 238" d="M676.207,327.551a1.175,1.175,0,0,1-.221.219,2.289,2.289,0,0,1-1.615.372c-.352-.071-.35-.048-.47.322a.724.724,0,0,1-.188.324.572.572,0,0,0-.206.435c-.03.436-.064.872-.1,1.308-.01.121-.026.242-.046.423-.3-.189-.2-.448-.259-.648s.007-.44-.181-.656c-.108.05-.218.1-.33.154-.844.376-1.687.755-2.534,1.124-.106.046-.229.127-.379.011.079-.173.247-.21.391-.276a12.445,12.445,0,0,0,2.732-1.652c.259-.211.5-.439.749-.664.183-.168.151-.327-.079-.393-.21-.06-.423-.11-.638-.151a1.114,1.114,0,0,0-.717.067,1.744,1.744,0,0,1-.34.083c.086-.306.163-.39.838-.611a6.356,6.356,0,0,1,1.1-.157,1.326,1.326,0,0,0,.032-.247,2.467,2.467,0,0,0-2.352-2.411,5.255,5.255,0,0,0-2.924.7,8.215,8.215,0,0,0-1.723,1.294c-.219.209-.221.222-.091.5a7.088,7.088,0,0,1,.71,3.247,6.883,6.883,0,0,1-1.433,4.157,8.606,8.606,0,0,1-5.82,3.365,12.97,12.97,0,0,1-3.8-.138,3.825,3.825,0,0,0-1.222.009,14.186,14.186,0,0,1-4.494.087,1.843,1.843,0,0,1-.511-.16c-.309-.151-.326-.409-.016-.571a3.252,3.252,0,0,1,.868-.3,6.988,6.988,0,0,1,2.57.057c.709.124,1.414.27,2.118.42a2.013,2.013,0,0,0,1.056-.079,7.088,7.088,0,0,0,3.8-2.938c.816-1.2,1.63-2.4,2.423-3.622a21.61,21.61,0,0,1,2.853-3.585c.255-.253.253-.266.059-.548a4.473,4.473,0,0,0-2.881-1.915,7.808,7.808,0,0,0-6.134,1.272,10.9,10.9,0,0,0-3.919,4.519,5.818,5.818,0,0,0-.611,2.565,2.172,2.172,0,0,0,1.752,2.15,3.537,3.537,0,0,0,2.637-.447,8.411,8.411,0,0,0,3.6-4.052,3.866,3.866,0,0,0,.293-1.659,1.3,1.3,0,0,0-1.7-1.316,2.934,2.934,0,0,0-1.125.486,7.6,7.6,0,0,0-2.638,3.2,3.157,3.157,0,0,0-.254,1.469.783.783,0,0,0,.662.826c.091.026.179.064.269.1q0,.045,0,.089a.83.83,0,0,1-.258.053,1.215,1.215,0,0,1-1.005-.744,2.674,2.674,0,0,1-.09-1.812,4.056,4.056,0,0,1,.782-1.536,6.645,6.645,0,0,1,2.68-2.144,3.519,3.519,0,0,1,1.466-.28,1.546,1.546,0,0,1,1.522,1.411,4.258,4.258,0,0,1-.515,2.456,8.947,8.947,0,0,1-3.7,3.772,3.99,3.99,0,0,1-2.083.47,3.152,3.152,0,0,1-3.125-3.17,6.011,6.011,0,0,1,.913-3.184,9.772,9.772,0,0,1,4.5-3.962,10.824,10.824,0,0,1,4.76-.966,5.631,5.631,0,0,1,3.5,1.105,7.907,7.907,0,0,1,.935.913c.275.3.268.319.569.061a9.024,9.024,0,0,1,1.748-1.193,6.244,6.244,0,0,1,2.469-.7,3.133,3.133,0,0,1,1.829.349,2.784,2.784,0,0,1,1.38,2.241,1.147,1.147,0,0,0,.026.305c.04.094.121.213.207.237a5.879,5.879,0,0,0,.981.2,2.908,2.908,0,0,0,.641-.078l.247-.031Zm-19.242,9.771,0,.1a2.24,2.24,0,0,0,.381.094c.551.041,1.1.088,1.654.1a6.521,6.521,0,0,0,5.3-2.457,10.5,10.5,0,0,0,1.958-3.383,6.527,6.527,0,0,0,.243-3.865,1.311,1.311,0,0,0-.295-.683c-.055.018-.1.019-.124.043a2.754,2.754,0,0,0-.231.257,15.466,15.466,0,0,0-1.736,2.86,27.576,27.576,0,0,1-1.526,2.895,8,8,0,0,1-2.827,2.836,14.243,14.243,0,0,1-2.507,1.083C657.158,337.232,657.062,337.28,656.964,337.321Zm-2.36.176-.011-.077a1.312,1.312,0,0,0-.215-.054c-1.021-.085-2.041-.174-3.063-.245a4.954,4.954,0,0,0-.8.044,1.183,1.183,0,0,0-.267.092l-.052.1a1.059,1.059,0,0,0,.175.074,2.367,2.367,0,0,0,.488.094c1.152.015,2.3.02,3.457.023A1.562,1.562,0,0,0,654.6,337.5Z" transform="translate(-446.346 -185.612)" fill="#8d929a"/>
    <path id="Path_239" data-name="Path 239" d="M1184.518,349.566l.408-.277c-.018-.064-.017-.1-.032-.111-.31-.315-.344-.488-.066-.824a2.056,2.056,0,0,1,.617-.505.383.383,0,0,1,.583.445,1.883,1.883,0,0,1-.3.655,2.531,2.531,0,0,1-1.026.855.47.47,0,0,0-.31.316,5.97,5.97,0,0,1-1.031,2.1.341.341,0,0,0-.027.088c.082.143.226.129.365.123a1.5,1.5,0,0,0,.749-.283,3.918,3.918,0,0,0,.99-.909,3.26,3.26,0,0,1,.3-.306l.092.059a.74.74,0,0,1-.081.251,3.9,3.9,0,0,1-1.531,1.262,1.608,1.608,0,0,1-.752.091.584.584,0,0,0-.609.287,4.591,4.591,0,0,1-1.118,1.109,1.8,1.8,0,0,1-1.269.359,1.646,1.646,0,0,1-1.329-1.5c-.009-.1-.015-.2-.028-.305,0-.019-.033-.034-.084-.082l-.218.238c-.312.341-.614.693-.941,1.02a2.97,2.97,0,0,1-.583.439,1.106,1.106,0,0,1-1.731-.982,2.187,2.187,0,0,1,.231-.923c.245-.493.556-.953.84-1.426.231-.385.471-.767.694-1.157.115-.2.24-.449.035-.639s-.463-.072-.678.054a4.728,4.728,0,0,0-1.262,1.179,23.551,23.551,0,0,0-1.958,3c-.154.267-.314.532-.455.805a.367.367,0,0,1-.4.221c-.278-.019-.558,0-.892,0,.089-.442.414-.721.512-1.13-.169.024-.234.16-.333.242a8.977,8.977,0,0,1-.948.781,1.048,1.048,0,0,1-1.62-.787,1.873,1.873,0,0,1,.278-1.329c.338-.531.688-1.056,1.02-1.591.19-.3.361-.622.531-.939a.4.4,0,0,0-.013-.471.436.436,0,0,0-.465-.1,1.622,1.622,0,0,0-.847.511,15.071,15.071,0,0,0-1.346,1.582c-.642.929-1.225,1.9-1.812,2.867a.564.564,0,0,1-.616.335,8.409,8.409,0,0,0-.913-.007c.095-.18.145-.29.208-.392.669-1.082,1.349-2.158,2.007-3.247a10.232,10.232,0,0,0,.509-1.036c.084-.184.208-.42.01-.565-.227-.166-.42.053-.557.207-.4.452-.776.925-1.158,1.392-.114.139-.212.292-.329.428a1.176,1.176,0,0,1-.257.15c.038-.153.034-.247.079-.3q.755-.9,1.526-1.787a1.312,1.312,0,0,1,.207-.173.767.767,0,0,1,1.265.363,1.145,1.145,0,0,1,.049.756,2.022,2.022,0,0,0-.029.333c.13-.124.2-.186.267-.257.25-.276.487-.565.75-.829a1.972,1.972,0,0,1,.91-.558,1.06,1.06,0,0,1,1.329.8,1.522,1.522,0,0,1-.1,1.092c-.271.524-.572,1.033-.864,1.546-.216.379-.441.754-.654,1.135a1.045,1.045,0,0,0-.118.323c-.071.4.172.61.545.432a2.686,2.686,0,0,0,.684-.492,11.247,11.247,0,0,0,1.868-2.348c1.329-2.23,2.635-4.474,3.95-6.712a2.359,2.359,0,0,1,.2-.33.411.411,0,0,1,.241-.16c.368-.017.737-.007,1.162-.007a1.842,1.842,0,0,1-.113.291q-1.608,2.587-3.221,5.172c-.066.106-.126.215-.189.323l.061.059c.105-.1.207-.2.317-.288a7.467,7.467,0,0,1,.839-.672,1.106,1.106,0,0,1,1.732.913,1.882,1.882,0,0,1-.263,1.11c-.263.485-.562.951-.846,1.424-.179.3-.365.591-.535.893a1.617,1.617,0,0,0-.154.394c-.082.324.118.532.448.468a.744.744,0,0,0,.279-.12,4.583,4.583,0,0,0,.513-.406,10.313,10.313,0,0,0,1.584-1.938,7.58,7.58,0,0,1,2.714-2.462,3.123,3.123,0,0,1,1.222-.452,2.255,2.255,0,0,1,.5-.007.743.743,0,0,1,.637.492C1184.407,349.311,1184.453,349.413,1184.518,349.566Zm-4.411,3.6c-.029.775.267,1.05.808.9a2.343,2.343,0,0,0,.847-.433,11.93,11.93,0,0,0,.943-.961.36.36,0,0,0,.061-.513.8.8,0,0,1-.106-.631,1.953,1.953,0,0,1,.661-1.1,1.041,1.041,0,0,1,.517-.222.288.288,0,0,0,.3-.319,2.791,2.791,0,0,0,0-.308.627.627,0,0,0-.867-.632,1.142,1.142,0,0,0-.389.159,5.4,5.4,0,0,0-.751.6,9.318,9.318,0,0,0-1.566,2.142A3.436,3.436,0,0,0,1180.107,353.17Z" transform="translate(-878.775 -202.344)" fill="#8d929a"/>
    <path id="Path_240" data-name="Path 240" d="M801.33,354.183a1.951,1.951,0,0,1,.09-.269c1.782-3.273,3.669-6.486,5.56-9.7a.472.472,0,0,1,.559-.275,2.561,2.561,0,0,0,.537-.012c.112,0,.223-.013.4-.024a2.284,2.284,0,0,1-.128.315q-1.618,2.6-3.24,5.2c-.059.094-.109.193-.164.29l.059.055c.107-.1.209-.2.32-.29a7.345,7.345,0,0,1,.839-.671,1.106,1.106,0,0,1,1.73.917,1.837,1.837,0,0,1-.249,1.074c-.259.487-.558.953-.841,1.426-.172.287-.352.568-.517.858a2.065,2.065,0,0,0-.183.423c-.108.36.111.586.476.5a.684.684,0,0,0,.242-.113,3.373,3.373,0,0,0,.565-.462,21.4,21.4,0,0,0,1.525-1.886,7.8,7.8,0,0,1,2.554-2.358,3.941,3.941,0,0,1,1.311-.541c.941-.17,1.418.279,1.273,1.225a4.656,4.656,0,0,1-.75,1.8c-.116.18-.233.36-.357.551a.694.694,0,0,0,.787.018,2.754,2.754,0,0,0,1.225-1.022,6.108,6.108,0,0,1,3-2.446,2.362,2.362,0,0,1,.71-.163.726.726,0,0,1,.859.727,2.808,2.808,0,0,1-.107.833,2.275,2.275,0,0,1-.639,1.083,1.573,1.573,0,0,1-.518.318.473.473,0,0,1-.56-.145.5.5,0,0,1-.06-.544,1.2,1.2,0,0,1,.514-.557c.15-.1.315-.174.469-.266a1.152,1.152,0,0,0,.519-.551c.165-.41-.064-.733-.488-.635a1.868,1.868,0,0,0-.713.354,7.046,7.046,0,0,0-1.468,1.726,4.94,4.94,0,0,0-.759,1.634,2.77,2.77,0,0,0-.064.763.693.693,0,0,0,.74.681,1.423,1.423,0,0,0,.871-.268,8.351,8.351,0,0,0,1.189-.913c.527-.524.994-1.108,1.49-1.664.1-.118.221-.225.332-.337l.072.043a.571.571,0,0,1-.018.2.957.957,0,0,1-.16.216c-.552.61-1.1,1.228-1.664,1.822a4.394,4.394,0,0,1-1.375.978,1.762,1.762,0,0,1-2.5-1.541c-.011-.151,0-.3,0-.52a1.637,1.637,0,0,0-.3.131,1.7,1.7,0,0,1-1.308.337.43.43,0,0,0-.453.21,4.969,4.969,0,0,1-1.163,1.172,1.917,1.917,0,0,1-1.152.381,1.623,1.623,0,0,1-1.471-1.484c-.012-.124-.017-.25-.024-.372-.18-.049-.218.087-.289.165-.3.333-.591.679-.909,1a3.32,3.32,0,0,1-.639.492,1.113,1.113,0,0,1-1.738-.947,1.886,1.886,0,0,1,.255-1c.256-.474.55-.928.827-1.39.238-.4.484-.788.712-1.191.108-.191.209-.424.017-.606a.482.482,0,0,0-.611.022,4.75,4.75,0,0,0-.7.534,9.3,9.3,0,0,0-1.522,1.935q-.726,1.159-1.4,2.353c-.168.3-.328.495-.713.406A3.433,3.433,0,0,0,801.33,354.183Zm12.44-4.573c.025-.79-.541-.883-1.016-.709a1.051,1.051,0,0,0-.241.118,4.437,4.437,0,0,0-.585.437,9.217,9.217,0,0,0-1.917,2.681,2.994,2.994,0,0,0-.288,1.191c-.014.524.261.781.773.667a2.4,2.4,0,0,0,.765-.341,5,5,0,0,0,1.134-1.145.325.325,0,0,0,.023-.386,1.5,1.5,0,0,1,1.081-2.009.262.262,0,0,0,.257-.272C813.761,349.764,813.765,349.687,813.77,349.61Z" transform="translate(-573.468 -202.258)" fill="#8d929a"/>
    <path id="Path_241" data-name="Path 241" d="M1116.313,375.426a.949.949,0,0,1-.089.244,12.775,12.775,0,0,1-2.356,2.48,3.339,3.339,0,0,1-1.234.611,1.733,1.733,0,0,1-2.125-2.039,2.734,2.734,0,0,1,.571-1.329,6.235,6.235,0,0,1,2.123-1.63,5.322,5.322,0,0,1,1.621-.592,1.336,1.336,0,0,1,.757.064.772.772,0,0,1,.437,1.048,1.52,1.52,0,0,1-.592.692,5.276,5.276,0,0,1-1.552.664c-.518.147-1.048.253-1.568.395a.652.652,0,0,0-.347.211,2.645,2.645,0,0,0-.548,1.457c-.017.575.263.853.842.855a2.014,2.014,0,0,0,.954-.272,6.277,6.277,0,0,0,1.761-1.48c.321-.367.618-.756.929-1.133C1115.992,375.558,1116.06,375.4,1116.313,375.426Zm-3.969.3a.662.662,0,0,0,.176.02,6.173,6.173,0,0,0,2.313-1.191,2.988,2.988,0,0,0,.515-.662.308.308,0,0,0-.025-.424.476.476,0,0,0-.389-.063,3.782,3.782,0,0,0-.847.44,8.854,8.854,0,0,0-1.572,1.582A2.341,2.341,0,0,0,1112.344,375.724Z" transform="translate(-832.912 -226.795)" fill="#8d929a"/>
    <path id="Path_242" data-name="Path 242" d="M760.807,375.446a.554.554,0,0,1-.056.2,12.321,12.321,0,0,1-2.478,2.574,3.171,3.171,0,0,1-1.143.538,1.728,1.728,0,0,1-2.115-1.986,2.672,2.672,0,0,1,.543-1.341,5.273,5.273,0,0,1,1.538-1.326,6.654,6.654,0,0,1,2.186-.932,1.376,1.376,0,0,1,.8.047.771.771,0,0,1,.445,1.073,1.719,1.719,0,0,1-.831.826,8.5,8.5,0,0,1-1.918.686c-.31.083-.63.129-.938.219a.728.728,0,0,0-.377.231,2.655,2.655,0,0,0-.536,1.423.736.736,0,0,0,.827.869,2.371,2.371,0,0,0,1.321-.479,7.081,7.081,0,0,0,1.477-1.348c.291-.342.565-.7.854-1.045a4.033,4.033,0,0,1,.31-.3Zm-3.956.271c.089.013.141.037.182.024a6.265,6.265,0,0,0,2.395-1.263,2.284,2.284,0,0,0,.36-.445c.115-.174.218-.382.059-.567s-.393-.111-.573-.023a3,3,0,0,0-.749.46c-.514.48-1,1-1.484,1.5A1.8,1.8,0,0,0,756.852,375.717Z" transform="translate(-534.59 -226.791)" fill="#8d929a"/>
    <path id="Path_243" data-name="Path 243" d="M1280.8,352.954a10.025,10.025,0,0,0,3.352-2.425l.467.7a13.429,13.429,0,0,1-3.465,1.807,1.319,1.319,0,0,1-.312.047Z" transform="translate(-975.835 -207.816)" fill="#8d929a"/>
    <path id="Path_244" data-name="Path 244" d="M951.828,389.505a1.291,1.291,0,0,1-.209.177,4.841,4.841,0,0,1-2.123.484,3.385,3.385,0,0,1-.609-.087,2.132,2.132,0,0,0-1.471.054.222.222,0,0,1-.112.012c-.021,0-.04-.026-.081-.054.046-.149.188-.2.308-.245q.523-.194,1.059-.353a2.274,2.274,0,0,1,1.221.024,2.558,2.558,0,0,0,1.772-.034C951.622,389.466,951.678,389.49,951.828,389.505Z" transform="translate(-695.901 -240.453)" fill="#8d929a"/>
  </g>
</svg>
